<svg xmlns="http://www.w3.org/2000/svg" viewBox="0 0 135.01253 55.8"><defs><style>.a{fill:#ffffff;}</style></defs><title>BF_STA_Primary_f58220</title><path class="a" d="M97.92513,28.59552c0,2.20038,1.71442,3.058,3.65982,3.058,1.274,0,3.22024-.37087,3.22024-2.06214,0-1.78394-2.47851-2.08443-4.91149-2.73349-2.45534-.649-4.93385-1.59851-4.93385-4.70287,0-3.3817,3.19707-5.0034,6.18552-5.0034,3.45122,0,6.6251,1.50585,6.6251,5.32793h-3.52158c-0.115-1.99262-1.52815-2.50173-3.26579-2.50173-1.15812,0-2.50167.48591-2.50167,1.87585,0,1.27489.78726,1.43627,4.93385,2.50253,1.20448,0.30048,4.91149,1.0654,4.91149,4.818,0,3.03483-2.38663,5.30555-6.88006,5.30555-3.66068,0-7.08954-1.80714-7.04319-5.88423h3.52161Z" transform="translate(-22.49374 -17.1)"/><path class="a" d="M114.30278,17.54524h3.72937l6.18552,16.54085h-3.77654l-1.25086-3.68385h-6.18469l-1.29722,3.68385h-3.68382ZM113.95511,27.6919h4.28564l-2.08528-6.06961h-0.04636Z" transform="translate(-22.49374 -17.1)"/><polygon class="a" points="109.092 16.986 104.992 16.986 99.618 0.445 103.37 0.445 107.054 12.074 107.101 12.074 110.83 0.445 114.583 0.445 109.092 16.986"/><polygon class="a" points="115.3 0.445 127.671 0.445 127.671 3.503 118.938 3.503 118.938 7.048 126.953 7.048 126.953 9.873 118.938 9.873 118.938 13.928 127.857 13.928 127.857 16.986 115.3 16.986 115.3 0.445"/><polygon class="a" points="76.613 22.659 71.655 22.659 71.655 19.601 85.207 19.601 85.207 22.659 80.25 22.659 80.25 36.142 76.613 36.142 76.613 22.659"/><polygon class="a" points="86.412 19.601 90.048 19.601 90.048 25.949 96.744 25.949 96.744 19.601 100.38 19.601 100.38 36.142 96.744 36.142 96.744 29.007 90.048 29.007 90.048 36.142 86.412 36.142 86.412 19.601"/><polygon class="a" points="102.882 19.601 115.252 19.601 115.252 22.659 106.518 22.659 106.518 26.204 114.534 26.204 114.534 29.029 106.518 29.029 106.518 33.084 115.438 33.084 115.438 36.142 102.882 36.142 102.882 19.601"/><polygon class="a" points="117.198 19.601 122.317 19.601 126.186 30.975 126.233 30.975 129.892 19.601 135.013 19.601 135.013 36.142 131.607 36.142 131.607 24.42 131.56 24.42 127.507 36.142 124.704 36.142 120.649 24.536 120.603 24.536 120.603 36.142 117.198 36.142 117.198 19.601"/><path class="a" d="M99.9638,55.857h3.72937l6.18552,16.54085h-3.77654l-1.25-3.68385H98.66661l-1.29722,3.68385H93.68556ZM99.61613,66.00362h4.28564L101.81732,59.934H101.771Z" transform="translate(-22.49374 -17.1)"/><polygon class="a" points="88.126 38.757 91.762 38.757 91.762 52.24 99.825 52.24 99.825 55.298 88.126 55.298 88.126 38.757"/><polygon class="a" points="101.168 38.757 104.804 38.757 104.804 52.24 112.867 52.24 112.867 55.298 101.168 55.298 101.168 38.757"/><rect class="a" x="62.92716" y="0.3355" width="0.82783" height="55.4645"/><path class="a" d="M26.94886,65.54494a4.22982,4.22982,0,0,1,.88495.086,1.91572,1.91572,0,0,1,.68461.28068,1.3022,1.3022,0,0,1,.44207.5182,1.81283,1.81283,0,0,1,.15728.79888,1.48508,1.48508,0,0,1-.23345.856,1.68474,1.68474,0,0,1-.68957.56125,1.63294,1.63294,0,0,1,.93709.63244,2.07217,2.07217,0,0,1,.10928,1.97852,1.73384,1.73384,0,0,1-.53726.61344,2.37276,2.37276,0,0,1-.76987.35182,3.47563,3.47563,0,0,1-.88991.11424H23.75344V65.54494h3.19542Zm-0.1904,2.7492a1.075,1.075,0,0,0,.65647-0.19043,0.71769,0.71769,0,0,0,.25662-0.61834,0.79059,0.79059,0,0,0-.08526-0.38991,0.6365,0.6365,0,0,0-.22848-0.23758A0.96625,0.96625,0,0,0,27.03,66.73863a2.24264,2.24264,0,0,0-.38495-0.03309h-1.3982v1.58861h1.51162Zm0.0861,2.88164a2.01118,2.01118,0,0,0,.418-0.04219,1.02148,1.02148,0,0,0,.35183-0.14324,0.71379,0.71379,0,0,0,.24339-0.27067,0.94241,0.94241,0,0,0,.09023-0.43791,0.87957,0.87957,0,0,0-.29471-0.74673,1.26638,1.26638,0,0,0-.78064-0.22348H25.24684v1.86423h1.59772Z" transform="translate(-22.49374 -17.1)"/><path class="a" d="M31.41929,71.15658a1.38468,1.38468,0,0,0,1.57867.09024,0.84458,0.84458,0,0,0,.36177-0.4321h1.18875a2.2572,2.2572,0,0,1-.875,1.26493,2.57945,2.57945,0,0,1-1.42635.38,2.79594,2.79594,0,0,1-1.04637-.18543,2.17134,2.17134,0,0,1-.78976-0.52735,2.38217,2.38217,0,0,1-.49918-0.81868,2.98326,2.98326,0,0,1-.17633-1.04555,2.85822,2.85822,0,0,1,.18129-1.02736A2.37259,2.37259,0,0,1,31.22393,67.486a2.54661,2.54661,0,0,1,1.02319-.20034,2.34382,2.34382,0,0,1,1.09356.24253,2.19108,2.19108,0,0,1,.76574.65154,2.67615,2.67615,0,0,1,.43213.93212,3.44653,3.44653,0,0,1,.09519,1.09441H31.08651a1.36376,1.36376,0,0,0,.33278.9503m1.52652-2.587a0.94992,0.94992,0,0,0-.7376-0.26653,1.1775,1.1775,0,0,0-.53726.1101,1.02154,1.02154,0,0,0-.34189.27067,0.97849,0.97849,0,0,0-.18047.34272,1.46116,1.46116,0,0,0-.06208.32372h2.197a1.56984,1.56984,0,0,0-.33775-0.78069" transform="translate(-22.49374 -17.1)"/><path class="a" d="M36.2366,71.114a0.78273,0.78273,0,0,0,.23345.25668,0.97916,0.97916,0,0,0,.32782.14734,1.51386,1.51386,0,0,0,.38494.048,1.48822,1.48822,0,0,0,.29967-0.03309,1.02314,1.02314,0,0,0,.2856-0.10515,0.65173,0.65173,0,0,0,.21358-0.18958,0.48638,0.48638,0,0,0-.31871-0.75664,8.15974,8.15974,0,0,0-1.12667-.30463q-0.29429-.06586-0.57535-0.15648a1.96024,1.96024,0,0,1-.49918-0.23758,1.14333,1.14333,0,0,1-.35183-0.37167,1.04415,1.04415,0,0,1-.13328-0.5464,1.474,1.474,0,0,1,.18543-0.77983,1.35923,1.35923,0,0,1,.48925-0.4801,2.13115,2.13115,0,0,1,.68543-0.24753,4.17978,4.17978,0,0,1,.77982-0.07205,3.84892,3.84892,0,0,1,.77485.077,2.03094,2.03094,0,0,1,.67054.25662,1.53236,1.53236,0,0,1,.49007.48015,1.6073,1.6073,0,0,1,.23262.75583h-1.284a0.589,0.589,0,0,0-.29471-0.52735,1.34627,1.34627,0,0,0-.62749-0.13824,2.44385,2.44385,0,0,0-.24753.014,0.84977,0.84977,0,0,0-.24255.0621,0.49451,0.49451,0,0,0-.18543.13824,0.36309,0.36309,0,0,0-.07616.24172,0.372,0.372,0,0,0,.13328.29553,1.03276,1.03276,0,0,0,.34687.18548,4.4874,4.4874,0,0,0,.49007.12829q0.27567,0.05715.56128,0.12334a5.729,5.729,0,0,1,.57533.16229,1.88328,1.88328,0,0,1,.49918.25162,1.22033,1.22033,0,0,1,.35183.38991,1.13774,1.13774,0,0,1,.13328.57535,1.48993,1.48993,0,0,1-.70365,1.34108,2.06772,2.06772,0,0,1-.71773.28062,4.196,4.196,0,0,1-.82286.08115,4.06848,4.06848,0,0,1-.83694-0.0861,2.19876,2.19876,0,0,1-.72766-0.28477,1.62781,1.62781,0,0,1-.52319-0.52815,1.64886,1.64886,0,0,1-.2235-0.82288h1.284a0.73645,0.73645,0,0,0,.09024.37582" transform="translate(-22.49374 -17.1)"/><path class="a" d="M42.57561,67.41912v0.90316H41.58635v2.43548a0.45753,0.45753,0,0,0,.5712.5704c0.07616,0,.14818-0.00333.21854-0.00909a1.84868,1.84868,0,0,0,.19952-0.029v1.04636a3.2703,3.2703,0,0,1-.38.0381c-0.1399.00581-.27649,0.00909-0.40894,0.00909a4.00541,4.00541,0,0,1-.59522-0.04219,1.42267,1.42267,0,0,1-.49421-0.16638,0.88661,0.88661,0,0,1-.33775-0.35187,1.255,1.255,0,0,1-.12335-0.59935V68.32229h-0.8179V67.41912h0.8179V65.94481h1.35019v1.47432h0.98926Z" transform="translate(-22.49374 -17.1)"/><polygon class="a" points="27.624 48.445 27.624 49.701 24.343 49.701 24.343 51.27 27.187 51.27 27.187 52.431 24.343 52.431 24.343 55.236 22.849 55.236 22.849 48.445 27.624 48.445"/><path class="a" d="M51.792,67.41912v0.91312h0.019a1.64681,1.64681,0,0,1,.25662-0.423,1.68733,1.68733,0,0,1,.37087-0.33282,1.8216,1.8216,0,0,1,.447-0.21438,1.62067,1.62067,0,0,1,.495-0.07614,1.0379,1.0379,0,0,1,.29471.048v1.255c-0.06374-.01243-0.13991-0.024-0.22848-0.03309a2.30019,2.30019,0,0,0-.25662-0.0141,1.43039,1.43039,0,0,0-.62749.12334,1.09055,1.09055,0,0,0-.41391.33777,1.333,1.333,0,0,0-.22352.4992,2.70216,2.70216,0,0,0-.06706.61834v2.2161H50.508v-4.9173h1.284Z" transform="translate(-22.49374 -17.1)"/><path class="a" d="M55.26333,72.33643H53.91314v-4.9173h1.35019v4.9173Zm0.02732-6.42977A0.70324,0.70324,0,1,1,54.587,65.203a0.70413,0.70413,0,0,1,.70366.70363" transform="translate(-22.49374 -17.1)"/><path class="a" d="M57.44142,71.15658a1.38468,1.38468,0,0,0,1.57867.09024,0.84458,0.84458,0,0,0,.36177-0.4321h1.18875a2.2572,2.2572,0,0,1-.875,1.26493,2.58037,2.58037,0,0,1-1.42718.38,2.79459,2.79459,0,0,1-1.04555-.18543,2.17134,2.17134,0,0,1-.78976-0.52735,2.38217,2.38217,0,0,1-.49918-0.81868,2.98326,2.98326,0,0,1-.17633-1.04555,2.85822,2.85822,0,0,1,.18129-1.02736A2.37259,2.37259,0,0,1,57.24606,67.486a2.54543,2.54543,0,0,1,1.02237-.20034,2.34492,2.34492,0,0,1,1.09438.24253,2.18369,2.18369,0,0,1,.76574.65154,2.67615,2.67615,0,0,1,.43213.93212,3.44653,3.44653,0,0,1,.09519,1.09441H57.10864a1.36376,1.36376,0,0,0,.33278.9503m1.52652-2.587a0.94919,0.94919,0,0,0-.73678-0.26653,1.17876,1.17876,0,0,0-.53808.1101,1.02154,1.02154,0,0,0-.34189.27067,0.99223,0.99223,0,0,0-.18047.34272,1.51089,1.51089,0,0,0-.06208.32372h2.197a1.56984,1.56984,0,0,0-.33775-0.78069" transform="translate(-22.49374 -17.1)"/><path class="a" d="M62.40617,67.41912v0.68464h0.02814a1.5514,1.5514,0,0,1,.6664-0.62254,1.92418,1.92418,0,0,1,.83692-0.19534,2.29116,2.29116,0,0,1,.88909.14734,1.32445,1.32445,0,0,1,.5472.409,1.59566,1.59566,0,0,1,.27979.63739,3.91129,3.91129,0,0,1,.08115.832v3.02488h-1.3502V69.55908a1.72348,1.72348,0,0,0-.19041-0.90812,0.73535,0.73535,0,0,0-.67549-0.29967,0.9361,0.9361,0,0,0-.79885.32782,1.82441,1.82441,0,0,0-.24753,1.0795v2.57782H61.1222v-4.9173h1.284Z" transform="translate(-22.49374 -17.1)"/><path class="a" d="M69.91968,71.70833a1.388,1.388,0,0,1-.62335.5753,2.065,2.065,0,0,1-.87.17634,2.10336,2.10336,0,0,1-.96938-0.21358,1.95035,1.95035,0,0,1-.68959-0.5803,2.60424,2.60424,0,0,1-.40894-0.84193,3.50866,3.50866,0,0,1-.13827-0.98921,3.29808,3.29808,0,0,1,.13827-0.95617,2.46357,2.46357,0,0,1,.40894-0.81292,1.98727,1.98727,0,0,1,1.63082-.77983,1.92646,1.92646,0,0,1,.832.18543,1.45333,1.45333,0,0,1,.62335.5464h0.019V65.54514h1.35017v6.79149h-1.284v-0.6283h-0.019Zm-0.0571-2.42972a1.43769,1.43769,0,0,0-.19455-0.495,1.10723,1.10723,0,0,0-.35679-0.34687,1.051,1.051,0,0,0-.55216-0.13329,1.09484,1.09484,0,0,0-.56044.13329,1.05227,1.05227,0,0,0-.36672.35182,1.57255,1.57255,0,0,0-.1995.4992,2.70843,2.70843,0,0,0-.0621.58525,2.48536,2.48536,0,0,0,.067.5704,1.54235,1.54235,0,0,0,.21358.50911,1.19865,1.19865,0,0,0,.37087.36177,1.00533,1.00533,0,0,0,.53727.13738,1.07019,1.07019,0,0,0,.55713-0.13324,1.02039,1.02039,0,0,0,.35679-0.356,1.62406,1.62406,0,0,0,.18958-0.50916,2.99681,2.99681,0,0,0,.0571-0.58939,2.93127,2.93127,0,0,0-.0571-0.5853" transform="translate(-22.49374 -17.1)"/><path class="a" d="M73.04425,71.114a0.78047,0.78047,0,0,0,.2326.25668,0.99132,0.99132,0,0,0,.32865.14734,1.514,1.514,0,0,0,.38494.048,1.488,1.488,0,0,0,.29967-0.03309,1.02314,1.02314,0,0,0,.2856-0.10515,0.65173,0.65173,0,0,0,.21358-0.18958,0.48638,0.48638,0,0,0-.3187-0.75664,8.16076,8.16076,0,0,0-1.12667-.30463c-0.197-.04391-0.38827-0.09605-0.57535-0.15648a1.97941,1.97941,0,0,1-.5-0.23758,1.1611,1.1611,0,0,1-.35184-0.37167,1.052,1.052,0,0,1-.13243-0.5464,1.47385,1.47385,0,0,1,.18543-0.77983,1.359,1.359,0,0,1,.48925-0.4801,2.13819,2.13819,0,0,1,.68542-0.24753,4.17992,4.17992,0,0,1,.77983-0.07205,3.85517,3.85517,0,0,1,.77485.077,2.03814,2.03814,0,0,1,.67054.25662,1.54063,1.54063,0,0,1,.49006.48015,1.6073,1.6073,0,0,1,.23262.75583h-1.284a0.59066,0.59066,0,0,0-.2947-0.52735,1.34979,1.34979,0,0,0-.62832-0.13824,2.44127,2.44127,0,0,0-.2467.014,0.84967,0.84967,0,0,0-.24255.0621,0.49441,0.49441,0,0,0-.18543.13824,0.363,0.363,0,0,0-.07617.24172,0.36945,0.36945,0,0,0,.13329.29553,1.03263,1.03263,0,0,0,.34687.18548,4.48789,4.48789,0,0,0,.49006.12829q0.27569,0.05715.56128,0.12334a5.73014,5.73014,0,0,1,.57535.16229,1.88347,1.88347,0,0,1,.49918.25162,1.22044,1.22044,0,0,1,.35182.38991,1.1464,1.1464,0,0,1,.13329.57535,1.57889,1.57889,0,0,1-.19455.81373,1.56015,1.56015,0,0,1-.50911.52735,2.06548,2.06548,0,0,1-.71854.28062,4.18778,4.18778,0,0,1-.822.08115,4.0686,4.0686,0,0,1-.83695-0.0861,2.199,2.199,0,0,1-.72766-0.28477,1.6279,1.6279,0,0,1-.52318-0.52815,1.6486,1.6486,0,0,1-.2235-0.82288h1.284a0.73632,0.73632,0,0,0,.09024.37582" transform="translate(-22.49374 -17.1)"/><path class="a" d="M37.3911,27.1548a4.76448,4.76448,0,0,0,4.44874-5.02654A4.76712,4.76712,0,0,0,37.3911,17.1a4.76419,4.76419,0,0,0-4.4471,5.02826,4.76155,4.76155,0,0,0,4.4471,5.02654" transform="translate(-22.49374 -17.1)"/><path class="a" d="M62.17827,27.1548a4.76321,4.76321,0,0,0,4.44708-5.02654,4.481,4.481,0,1,0-8.895,0,4.76384,4.76384,0,0,0,4.44792,5.02654" transform="translate(-22.49374 -17.1)"/><path class="a" d="M71.64769,46.20845c-3.13,5.462-8.40906,9.18145-15.08053,7.741,4.07126-3.8668,6.96949-9.54736,7.26337-17.89517a25.38943,25.38943,0,0,0-28.08988,0c0.29222,8.34619,3.1888,14.02422,7.25757,17.89184C36.41864,55.36423,31.19588,51.76567,28.046,46.4245l-5.55225,3.9769c5.84447,10.25347,17.72381,12.30733,27.291,8.05642,9.63676,4.28239,21.61958,2.17057,27.416-8.27167ZM49.78642,50.74493A17.201,17.201,0,0,1,43.63068,39.2481a13.44171,13.44171,0,0,1,6.15574-1.313,13.45566,13.45566,0,0,1,6.15325,1.31213,17.21353,17.21353,0,0,1-6.15325,11.49769" transform="translate(-22.49374 -17.1)"/><path class="a" d="M97.92513,28.59552c0,2.20038,1.71442,3.058,3.65982,3.058,1.274,0,3.22024-.37087,3.22024-2.06214,0-1.78394-2.47851-2.08443-4.91149-2.73349-2.45534-.649-4.93385-1.59851-4.93385-4.70287,0-3.3817,3.19707-5.0034,6.18552-5.0034,3.45122,0,6.6251,1.50585,6.6251,5.32793h-3.52158c-0.115-1.99262-1.52815-2.50173-3.26579-2.50173-1.15812,0-2.50167.48591-2.50167,1.87585,0,1.27489.78726,1.43627,4.93385,2.50253,1.20448,0.30048,4.91149,1.0654,4.91149,4.818,0,3.03483-2.38663,5.30555-6.88006,5.30555-3.66068,0-7.08954-1.80714-7.04319-5.88423h3.52161Z" transform="translate(-22.49374 -17.1)"/><path class="a" d="M114.30278,17.54524h3.72937l6.18552,16.54085h-3.77654l-1.25086-3.68385h-6.18469l-1.29722,3.68385h-3.68382ZM113.95511,27.6919h4.28564l-2.08528-6.06961h-0.04636Z" transform="translate(-22.49374 -17.1)"/><polygon class="a" points="109.092 16.986 104.992 16.986 99.618 0.445 103.37 0.445 107.054 12.074 107.101 12.074 110.83 0.445 114.583 0.445 109.092 16.986"/><polygon class="a" points="115.3 0.445 127.671 0.445 127.671 3.503 118.938 3.503 118.938 7.048 126.953 7.048 126.953 9.873 118.938 9.873 118.938 13.928 127.857 13.928 127.857 16.986 115.3 16.986 115.3 0.445"/><polygon class="a" points="76.613 22.659 71.655 22.659 71.655 19.601 85.207 19.601 85.207 22.659 80.25 22.659 80.25 36.142 76.613 36.142 76.613 22.659"/><polygon class="a" points="86.412 19.601 90.048 19.601 90.048 25.949 96.744 25.949 96.744 19.601 100.38 19.601 100.38 36.142 96.744 36.142 96.744 29.007 90.048 29.007 90.048 36.142 86.412 36.142 86.412 19.601"/><polygon class="a" points="102.882 19.601 115.252 19.601 115.252 22.659 106.518 22.659 106.518 26.204 114.534 26.204 114.534 29.029 106.518 29.029 106.518 33.084 115.438 33.084 115.438 36.142 102.882 36.142 102.882 19.601"/><polygon class="a" points="117.198 19.601 122.317 19.601 126.186 30.975 126.233 30.975 129.892 19.601 135.013 19.601 135.013 36.142 131.607 36.142 131.607 24.42 131.56 24.42 127.507 36.142 124.704 36.142 120.649 24.536 120.603 24.536 120.603 36.142 117.198 36.142 117.198 19.601"/><path class="a" d="M99.9638,55.857h3.72937l6.18552,16.54085h-3.77654l-1.25-3.68385H98.66661l-1.29722,3.68385H93.68556ZM99.61613,66.00362h4.28564L101.81732,59.934H101.771Z" transform="translate(-22.49374 -17.1)"/><polygon class="a" points="88.126 38.757 91.762 38.757 91.762 52.24 99.825 52.24 99.825 55.298 88.126 55.298 88.126 38.757"/><polygon class="a" points="101.168 38.757 104.804 38.757 104.804 52.24 112.867 52.24 112.867 55.298 101.168 55.298 101.168 38.757"/><rect class="a" x="62.92716" y="0.3355" width="0.82783" height="55.4645"/><path class="a" d="M26.94886,65.54494a4.22982,4.22982,0,0,1,.88495.086,1.91572,1.91572,0,0,1,.68461.28068,1.3022,1.3022,0,0,1,.44207.5182,1.81283,1.81283,0,0,1,.15728.79888,1.48508,1.48508,0,0,1-.23345.856,1.68474,1.68474,0,0,1-.68957.56125,1.63294,1.63294,0,0,1,.93709.63244,2.07217,2.07217,0,0,1,.10928,1.97852,1.73384,1.73384,0,0,1-.53726.61344,2.37276,2.37276,0,0,1-.76987.35182,3.47563,3.47563,0,0,1-.88991.11424H23.75344V65.54494h3.19542Zm-0.1904,2.7492a1.075,1.075,0,0,0,.65647-0.19043,0.71769,0.71769,0,0,0,.25662-0.61834,0.79059,0.79059,0,0,0-.08526-0.38991,0.6365,0.6365,0,0,0-.22848-0.23758A0.96625,0.96625,0,0,0,27.03,66.73863a2.24264,2.24264,0,0,0-.38495-0.03309h-1.3982v1.58861h1.51162Zm0.0861,2.88164a2.01118,2.01118,0,0,0,.418-0.04219,1.02148,1.02148,0,0,0,.35183-0.14324,0.71379,0.71379,0,0,0,.24339-0.27067,0.94241,0.94241,0,0,0,.09023-0.43791,0.87957,0.87957,0,0,0-.29471-0.74673,1.26638,1.26638,0,0,0-.78064-0.22348H25.24684v1.86423h1.59772Z" transform="translate(-22.49374 -17.1)"/><path class="a" d="M31.41929,71.15658a1.38468,1.38468,0,0,0,1.57867.09024,0.84458,0.84458,0,0,0,.36177-0.4321h1.18875a2.2572,2.2572,0,0,1-.875,1.26493,2.57945,2.57945,0,0,1-1.42635.38,2.79594,2.79594,0,0,1-1.04637-.18543,2.17134,2.17134,0,0,1-.78976-0.52735,2.38217,2.38217,0,0,1-.49918-0.81868,2.98326,2.98326,0,0,1-.17633-1.04555,2.85822,2.85822,0,0,1,.18129-1.02736A2.37259,2.37259,0,0,1,31.22393,67.486a2.54661,2.54661,0,0,1,1.02319-.20034,2.34382,2.34382,0,0,1,1.09356.24253,2.19108,2.19108,0,0,1,.76574.65154,2.67615,2.67615,0,0,1,.43213.93212,3.44653,3.44653,0,0,1,.09519,1.09441H31.08651a1.36376,1.36376,0,0,0,.33278.9503m1.52652-2.587a0.94992,0.94992,0,0,0-.7376-0.26653,1.1775,1.1775,0,0,0-.53726.1101,1.02154,1.02154,0,0,0-.34189.27067,0.97849,0.97849,0,0,0-.18047.34272,1.46116,1.46116,0,0,0-.06208.32372h2.197a1.56984,1.56984,0,0,0-.33775-0.78069" transform="translate(-22.49374 -17.1)"/><path class="a" d="M36.2366,71.114a0.78273,0.78273,0,0,0,.23345.25668,0.97916,0.97916,0,0,0,.32782.14734,1.51386,1.51386,0,0,0,.38494.048,1.48822,1.48822,0,0,0,.29967-0.03309,1.02314,1.02314,0,0,0,.2856-0.10515,0.65173,0.65173,0,0,0,.21358-0.18958,0.48638,0.48638,0,0,0-.31871-0.75664,8.15974,8.15974,0,0,0-1.12667-.30463q-0.29429-.06586-0.57535-0.15648a1.96024,1.96024,0,0,1-.49918-0.23758,1.14333,1.14333,0,0,1-.35183-0.37167,1.04415,1.04415,0,0,1-.13328-0.5464,1.474,1.474,0,0,1,.18543-0.77983,1.35923,1.35923,0,0,1,.48925-0.4801,2.13115,2.13115,0,0,1,.68543-0.24753,4.17978,4.17978,0,0,1,.77982-0.07205,3.84892,3.84892,0,0,1,.77485.077,2.03094,2.03094,0,0,1,.67054.25662,1.53236,1.53236,0,0,1,.49007.48015,1.6073,1.6073,0,0,1,.23262.75583h-1.284a0.589,0.589,0,0,0-.29471-0.52735,1.34627,1.34627,0,0,0-.62749-0.13824,2.44385,2.44385,0,0,0-.24753.014,0.84977,0.84977,0,0,0-.24255.0621,0.49451,0.49451,0,0,0-.18543.13824,0.36309,0.36309,0,0,0-.07616.24172,0.372,0.372,0,0,0,.13328.29553,1.03276,1.03276,0,0,0,.34687.18548,4.4874,4.4874,0,0,0,.49007.12829q0.27567,0.05715.56128,0.12334a5.729,5.729,0,0,1,.57533.16229,1.88328,1.88328,0,0,1,.49918.25162,1.22033,1.22033,0,0,1,.35183.38991,1.13774,1.13774,0,0,1,.13328.57535,1.48993,1.48993,0,0,1-.70365,1.34108,2.06772,2.06772,0,0,1-.71773.28062,4.196,4.196,0,0,1-.82286.08115,4.06848,4.06848,0,0,1-.83694-0.0861,2.19876,2.19876,0,0,1-.72766-0.28477,1.62781,1.62781,0,0,1-.52319-0.52815,1.64886,1.64886,0,0,1-.2235-0.82288h1.284a0.73645,0.73645,0,0,0,.09024.37582" transform="translate(-22.49374 -17.1)"/><path class="a" d="M42.57561,67.41912v0.90316H41.58635v2.43548a0.45753,0.45753,0,0,0,.5712.5704c0.07616,0,.14818-0.00333.21854-0.00909a1.84868,1.84868,0,0,0,.19952-0.029v1.04636a3.2703,3.2703,0,0,1-.38.0381c-0.1399.00581-.27649,0.00909-0.40894,0.00909a4.00541,4.00541,0,0,1-.59522-0.04219,1.42267,1.42267,0,0,1-.49421-0.16638,0.88661,0.88661,0,0,1-.33775-0.35187,1.255,1.255,0,0,1-.12335-0.59935V68.32229h-0.8179V67.41912h0.8179V65.94481h1.35019v1.47432h0.98926Z" transform="translate(-22.49374 -17.1)"/><polygon class="a" points="27.624 48.445 27.624 49.701 24.343 49.701 24.343 51.27 27.187 51.27 27.187 52.431 24.343 52.431 24.343 55.236 22.849 55.236 22.849 48.445 27.624 48.445"/><path class="a" d="M51.792,67.41912v0.91312h0.019a1.64681,1.64681,0,0,1,.25662-0.423,1.68733,1.68733,0,0,1,.37087-0.33282,1.8216,1.8216,0,0,1,.447-0.21438,1.62067,1.62067,0,0,1,.495-0.07614,1.0379,1.0379,0,0,1,.29471.048v1.255c-0.06374-.01243-0.13991-0.024-0.22848-0.03309a2.30019,2.30019,0,0,0-.25662-0.0141,1.43039,1.43039,0,0,0-.62749.12334,1.09055,1.09055,0,0,0-.41391.33777,1.333,1.333,0,0,0-.22352.4992,2.70216,2.70216,0,0,0-.06706.61834v2.2161H50.508v-4.9173h1.284Z" transform="translate(-22.49374 -17.1)"/><path class="a" d="M55.26333,72.33643H53.91314v-4.9173h1.35019v4.9173Zm0.02732-6.42977A0.70324,0.70324,0,1,1,54.587,65.203a0.70413,0.70413,0,0,1,.70366.70363" transform="translate(-22.49374 -17.1)"/><path class="a" d="M57.44142,71.15658a1.38468,1.38468,0,0,0,1.57867.09024,0.84458,0.84458,0,0,0,.36177-0.4321h1.18875a2.2572,2.2572,0,0,1-.875,1.26493,2.58037,2.58037,0,0,1-1.42718.38,2.79459,2.79459,0,0,1-1.04555-.18543,2.17134,2.17134,0,0,1-.78976-0.52735,2.38217,2.38217,0,0,1-.49918-0.81868,2.98326,2.98326,0,0,1-.17633-1.04555,2.85822,2.85822,0,0,1,.18129-1.02736A2.37259,2.37259,0,0,1,57.24606,67.486a2.54543,2.54543,0,0,1,1.02237-.20034,2.34492,2.34492,0,0,1,1.09438.24253,2.18369,2.18369,0,0,1,.76574.65154,2.67615,2.67615,0,0,1,.43213.93212,3.44653,3.44653,0,0,1,.09519,1.09441H57.10864a1.36376,1.36376,0,0,0,.33278.9503m1.52652-2.587a0.94919,0.94919,0,0,0-.73678-0.26653,1.17876,1.17876,0,0,0-.53808.1101,1.02154,1.02154,0,0,0-.34189.27067,0.99223,0.99223,0,0,0-.18047.34272,1.51089,1.51089,0,0,0-.06208.32372h2.197a1.56984,1.56984,0,0,0-.33775-0.78069" transform="translate(-22.49374 -17.1)"/><path class="a" d="M62.40617,67.41912v0.68464h0.02814a1.5514,1.5514,0,0,1,.6664-0.62254,1.92418,1.92418,0,0,1,.83692-0.19534,2.29116,2.29116,0,0,1,.88909.14734,1.32445,1.32445,0,0,1,.5472.409,1.59566,1.59566,0,0,1,.27979.63739,3.91129,3.91129,0,0,1,.08115.832v3.02488h-1.3502V69.55908a1.72348,1.72348,0,0,0-.19041-0.90812,0.73535,0.73535,0,0,0-.67549-0.29967,0.9361,0.9361,0,0,0-.79885.32782,1.82441,1.82441,0,0,0-.24753,1.0795v2.57782H61.1222v-4.9173h1.284Z" transform="translate(-22.49374 -17.1)"/><path class="a" d="M69.91968,71.70833a1.388,1.388,0,0,1-.62335.5753,2.065,2.065,0,0,1-.87.17634,2.10336,2.10336,0,0,1-.96938-0.21358,1.95035,1.95035,0,0,1-.68959-0.5803,2.60424,2.60424,0,0,1-.40894-0.84193,3.50866,3.50866,0,0,1-.13827-0.98921,3.29808,3.29808,0,0,1,.13827-0.95617,2.46357,2.46357,0,0,1,.40894-0.81292,1.98727,1.98727,0,0,1,1.63082-.77983,1.92646,1.92646,0,0,1,.832.18543,1.45333,1.45333,0,0,1,.62335.5464h0.019V65.54514h1.35017v6.79149h-1.284v-0.6283h-0.019Zm-0.0571-2.42972a1.43769,1.43769,0,0,0-.19455-0.495,1.10723,1.10723,0,0,0-.35679-0.34687,1.051,1.051,0,0,0-.55216-0.13329,1.09484,1.09484,0,0,0-.56044.13329,1.05227,1.05227,0,0,0-.36672.35182,1.57255,1.57255,0,0,0-.1995.4992,2.70843,2.70843,0,0,0-.0621.58525,2.48536,2.48536,0,0,0,.067.5704,1.54235,1.54235,0,0,0,.21358.50911,1.19865,1.19865,0,0,0,.37087.36177,1.00533,1.00533,0,0,0,.53727.13738,1.07019,1.07019,0,0,0,.55713-0.13324,1.02039,1.02039,0,0,0,.35679-0.356,1.62406,1.62406,0,0,0,.18958-0.50916,2.99681,2.99681,0,0,0,.0571-0.58939,2.93127,2.93127,0,0,0-.0571-0.5853" transform="translate(-22.49374 -17.1)"/><path class="a" d="M73.04425,71.114a0.78047,0.78047,0,0,0,.2326.25668,0.99132,0.99132,0,0,0,.32865.14734,1.514,1.514,0,0,0,.38494.048,1.488,1.488,0,0,0,.29967-0.03309,1.02314,1.02314,0,0,0,.2856-0.10515,0.65173,0.65173,0,0,0,.21358-0.18958,0.48638,0.48638,0,0,0-.3187-0.75664,8.16076,8.16076,0,0,0-1.12667-.30463c-0.197-.04391-0.38827-0.09605-0.57535-0.15648a1.97941,1.97941,0,0,1-.5-0.23758,1.1611,1.1611,0,0,1-.35184-0.37167,1.052,1.052,0,0,1-.13243-0.5464,1.47385,1.47385,0,0,1,.18543-0.77983,1.359,1.359,0,0,1,.48925-0.4801,2.13819,2.13819,0,0,1,.68542-0.24753,4.17992,4.17992,0,0,1,.77983-0.07205,3.85517,3.85517,0,0,1,.77485.077,2.03814,2.03814,0,0,1,.67054.25662,1.54063,1.54063,0,0,1,.49006.48015,1.6073,1.6073,0,0,1,.23262.75583h-1.284a0.59066,0.59066,0,0,0-.2947-0.52735,1.34979,1.34979,0,0,0-.62832-0.13824,2.44127,2.44127,0,0,0-.2467.014,0.84967,0.84967,0,0,0-.24255.0621,0.49441,0.49441,0,0,0-.18543.13824,0.363,0.363,0,0,0-.07617.24172,0.36945,0.36945,0,0,0,.13329.29553,1.03263,1.03263,0,0,0,.34687.18548,4.48789,4.48789,0,0,0,.49006.12829q0.27569,0.05715.56128,0.12334a5.73014,5.73014,0,0,1,.57535.16229,1.88347,1.88347,0,0,1,.49918.25162,1.22044,1.22044,0,0,1,.35182.38991,1.1464,1.1464,0,0,1,.13329.57535,1.57889,1.57889,0,0,1-.19455.81373,1.56015,1.56015,0,0,1-.50911.52735,2.06548,2.06548,0,0,1-.71854.28062,4.18778,4.18778,0,0,1-.822.08115,4.0686,4.0686,0,0,1-.83695-0.0861,2.199,2.199,0,0,1-.72766-0.28477,1.6279,1.6279,0,0,1-.52318-0.52815,1.6486,1.6486,0,0,1-.2235-0.82288h1.284a0.73632,0.73632,0,0,0,.09024.37582" transform="translate(-22.49374 -17.1)"/><path class="a" d="M37.3911,27.1548a4.76448,4.76448,0,0,0,4.44874-5.02654A4.76712,4.76712,0,0,0,37.3911,17.1a4.76419,4.76419,0,0,0-4.4471,5.02826,4.76155,4.76155,0,0,0,4.4471,5.02654" transform="translate(-22.49374 -17.1)"/><path class="a" d="M62.17827,27.1548a4.76321,4.76321,0,0,0,4.44708-5.02654,4.481,4.481,0,1,0-8.895,0,4.76384,4.76384,0,0,0,4.44792,5.02654" transform="translate(-22.49374 -17.1)"/><path class="a" d="M71.64769,46.20845c-3.13,5.462-8.40906,9.18145-15.08053,7.741,4.07126-3.8668,6.96949-9.54736,7.26337-17.89517a25.38943,25.38943,0,0,0-28.08988,0c0.29222,8.34619,3.1888,14.02422,7.25757,17.89184C36.41864,55.36423,31.19588,51.76567,28.046,46.4245l-5.55225,3.9769c5.84447,10.25347,17.72381,12.30733,27.291,8.05642,9.63676,4.28239,21.61958,2.17057,27.416-8.27167ZM49.78642,50.74493A17.201,17.201,0,0,1,43.63068,39.2481a13.44171,13.44171,0,0,1,6.15574-1.313,13.45566,13.45566,0,0,1,6.15325,1.31213,17.21353,17.21353,0,0,1-6.15325,11.49769" transform="translate(-22.49374 -17.1)"/><path class="a" d="M77.63166,46.884a1.08461,1.08461,0,1,1-1.11328,1.08105A1.07576,1.07576,0,0,1,77.63166,46.884Zm0,1.93652a0.853,0.853,0,1,0-.81836-0.85547A0.82379,0.82379,0,0,0,77.63166,48.82057ZM77.199,47.3567h0.458c0.30469,0,.47559.09521,0.47559,0.35938a0.3025,0.3025,0,0,1-.31836.32471l0.32422,0.53027h-0.252l-0.2959-.519H77.44026v0.519H77.199V47.3567ZM77.44026,47.864h0.21387c0.13672,0,.23828-0.02051.23828-0.16846,0-.13037-0.13965-0.15088-0.25-0.15088H77.44026V47.864Z" transform="translate(-22.49374 -17.1)"/><path class="a" d="M77.81037,67.32838a1.08461,1.08461,0,1,1-1.11328,1.08105A1.07576,1.07576,0,0,1,77.81037,67.32838Zm0,1.93652a0.853,0.853,0,1,0-.81836-0.85547A0.82379,0.82379,0,0,0,77.81037,69.2649ZM77.37776,67.801h0.458c0.30469,0,.47559.09521,0.47559,0.35938a0.3025,0.3025,0,0,1-.31836.32471l0.32422,0.53027h-0.252l-0.2959-.519H77.619v0.519H77.37776V67.801ZM77.619,68.30836h0.21387c0.13672,0,.23828-0.02051.23828-0.16846,0-.13037-0.13965-0.15088-0.25-0.15088H77.619v0.31934Z" transform="translate(-22.49374 -17.1)"/><path class="a" d="M130.02327,55.8401A1.08461,1.08461,0,1,1,128.91,56.92115,1.07576,1.07576,0,0,1,130.02327,55.8401Zm0,1.93652a0.853,0.853,0,1,0-.81836-0.85547A0.82379,0.82379,0,0,0,130.02327,57.77662Zm-0.43262-1.46387h0.458c0.30469,0,.47559.09521,0.47559,0.35938a0.3025,0.3025,0,0,1-.31836.32471l0.32422,0.53027h-0.252l-0.2959-.519h-0.15039v0.519h-0.24121V56.31276Zm0.24121,0.50732h0.21387c0.13672,0,.23828-0.02051.23828-0.16846,0-.13037-0.13965-0.15088-0.25-0.15088h-0.20215v0.31934Z" transform="translate(-22.49374 -17.1)"/></svg>